<?xml version="1.0" standalone="no"?>
<svg viewBox="0 0 200 200" xmlns="http://www.w3.org/2000/svg">
  <path fill="#9C57E0" d="M42.3,-74C52.9,-67.1,58.3,-51.9,66.9,-38.2C75.5,-24.5,87.4,-12.3,89.3,1.1C91.3,14.6,83.5,29.1,73.5,40.5C63.5,51.8,51.4,60,38.8,64C26.2,68,13.1,67.9,-0.1,68.1C-13.3,68.3,-26.7,68.8,-36.1,62.9C-45.4,57.1,-50.8,44.7,-59.6,33.2C-68.3,21.6,-80.5,10.8,-82.4,-1.1C-84.4,-13,-76.1,-26.1,-66.3,-36C-56.6,-45.9,-45.5,-52.7,-34.2,-59.2C-22.9,-65.7,-11.4,-71.9,2.2,-75.8C15.8,-79.6,31.7,-80.9,42.3,-74Z" transform="translate(100 100)" />
</svg>
